<?xml version="1.0" encoding="UTF-8"?>
<svg id="k" xmlns="http://www.w3.org/2000/svg" viewBox="0 0 1024 1024">
  <defs>
    <style>
    .bg { fill: #0aa2c0; }
    .mark { fill: #343a40; stroke: #343a40; stroke-linejoin: round; stroke-width: 46px; }
    @media (prefers-color-scheme: dark) {
      .bg { fill: #343a40; }
      .mark { fill: #0aa2c0; stroke: #0aa2c0; }
    }
  </style>
  </defs>
  <rect class="bg" width="100%" height="100%" rx="175" ry="175" />
  <path class="mark" d="M692.8,873.08c-23.63-36.18-50.2-72-79.72-107.48-29.54-35.48-60.62-68.88-93.27-100.19-32.66-31.31-65.83-59.84-99.52-85.58-33.71-25.74-66.17-47.32-97.44-64.71v357.95h-70.86V150.92h70.86v336.07c26.41-23.58,55.78-50.8,88.12-81.67,32.32-30.87,64.3-61.91,95.94-93.12,31.64-31.21,61.37-61.04,89.18-89.49,27.81-28.43,50.05-52.36,66.74-71.79h85.45c-20.16,21.51-44.5,47.01-72.99,76.48-28.51,29.49-58.76,59.84-90.74,91.05-31.98,31.21-63.79,61.91-95.41,92.08-31.64,30.17-59.97,56.7-85,79.59,20.14,12.54,41.85,28.01,65.13,46.44,23.27,18.43,46.89,38.61,70.86,60.52,23.97,21.92,47.58,44.87,70.86,68.88,23.27,24,45.15,48.18,65.65,72.52,20.48,24.36,38.9,48,55.23,70.96,16.31,22.96,29.7,44.17,40.12,63.65h-79.2Z"/>
</svg>