<?xml version="1.0" encoding="UTF-8"?>
<svg id="k" xmlns="http://www.w3.org/2000/svg" version="1.1" viewBox="0 0 1024 1024">
  <!-- Generator: Adobe Illustrator 30.3.0, SVG Export Plug-In . SVG Version: 2.1.3 Build 182)  -->
  <defs>
    <style>
      .st0 {
        fill: #fff;
        stroke-miterlimit: 10;
        stroke-width: 29px;
      }

      .st0, .st1 {
        stroke: #000;
      }

      .st2 {
        fill: none;
      }

      .st1 {
        stroke-linecap: round;
        stroke-linejoin: round;
        stroke-width: 46px;
      }
    </style>
  </defs>
  <path class="st2" d="M50,1024c-27.6,0-50-22.4-50-50V50C0,22.4,22.4,0,50,0h924c27.6,0,50,22.4,50,50v924c0,27.6-22.4,50-50,50"/>
  <path class="st1" d="M692.8,873.1c-23.6-36.2-50.2-72-79.7-107.5-29.5-35.5-60.6-68.9-93.3-100.2-32.7-31.3-65.8-59.8-99.5-85.6-33.7-25.7-66.2-47.3-97.4-64.7v358h-70.9V150.9h70.9v336.1c26.4-23.6,55.8-50.8,88.1-81.7,32.3-30.9,64.3-61.9,95.9-93.1s61.4-61,89.2-89.5c27.8-28.4,50-52.4,66.7-71.8h85.5c-20.2,21.5-44.5,47-73,76.5-28.5,29.5-58.8,59.8-90.7,91s-63.8,61.9-95.4,92.1c-31.6,30.2-60,56.7-85,79.6,20.1,12.5,41.9,28,65.1,46.4,23.3,18.4,46.9,38.6,70.9,60.5,24,21.9,47.6,44.9,70.9,68.9,23.3,24,45.2,48.2,65.7,72.5,20.5,24.4,38.9,48,55.2,71,16.3,23,29.7,44.2,40.1,63.7h-79.2,0Z"/>
  <path class="st0" d="M571.9,974.9"/>
</svg>