<?xml version="1.0" encoding="UTF-8"?>
<svg id="reclaimer" xmlns="http://www.w3.org/2000/svg" version="1.1" viewBox="0 0 1000 960">
  <defs>
    <linearGradient id="bgGradient" x1="0%" y1="0%" x2="100%" y2="100%">
      <!-- Gradient stops -->
      <stop offset="0%" stop-color="#0aa2c0" />   <!-- Top-left color -->
      <stop offset="100%" stop-color="#088199" /> <!-- Bottom-right color -->
    </linearGradient>
  </defs>
  <rect width="100%" height="100%" fill="url(#bgGradient)" />
  <!-- Generator: Adobe Illustrator 30.3.0, SVG Export Plug-In . SVG Version: 2.1.3 Build 182)  -->
  <path d="M451,69.5c-102.8,18.3-185.9,89.4-217.9,186.2-3,8.9-6,19-6.3,22l-1.1,6h15.6l2.6-10.4c10.4-41.3,33.5-81.9,65.2-114.7,30.5-31.7,64.8-54,105-68.2,16.4-5.6,49.9-13,58.9-13s4.8,0,4.8-5.6,0-5.6-4.8-5.2c-3,0-12.3,1.5-21.6,3h-.4Z"/>
  <path d="M522.2,71.7v5.2l9.7,1.1c58.5,6.7,115.5,35.4,158.7,80.5,31.7,32.8,54.8,73.8,65.2,114.7l2.6,10.4h15.6l-1.1-6c-1.9-10.8-11.9-38.4-19.4-54.4-38.7-81.2-115.1-138.6-206-154.2-24.6-4.1-25.3-4.1-25.3,2.2v.4Z"/>
  <path d="M226,101.1c-86.8,66.7-146.8,162-167.6,267.1-10.4,51.8-11.2,114-2.2,165.4,4.5,25.7,6.7,34.3,9.7,33.9,1.5,0,28.7-16.4,60-36.1,66.3-41.7,60.7-35.4,51.4-59.2-28.3-71.9-30.2-153.8-5.6-228.3,12.3-36.9,35.4-79,60.7-109.9l10.4-12.3v-15.3c0-11.2-.4-14.9-1.9-14.9s-7.8,4.8-15.3,10.1l.4-.4Z"/>
  <path d="M756.8,106.3v15.3l10.4,12.3c24.2,29.8,48.1,71.9,60.3,107.3,19.4,56.2,23.1,118.8,11.2,178-3.4,16-14.2,50.3-21.2,67.4-1.5,3.4-1.5,5.6-.7,7.4,1.9,3,115.1,73.8,117.7,73.8s5.2-10.1,9.3-34.3c8.9-51.4,8.2-113.6-2.2-165.4-20.9-105-80.8-200.4-167.6-267.1-7.4-5.6-14.2-10.1-14.9-10.1-1.5,0-1.9,4.1-1.9,14.9l-.4.4Z"/>
  <path d="M462.6,110.4c-49.5,7.1-93.5,28.3-129.3,62.9-33.5,32-55.1,70-65.9,114.7-5.2,22-6.7,66.3-3,89.4,4.8,29.1,13.4,54.4,27.9,79.3,27.9,48.8,73,86,127,104.7l16.4,5.6,1.1,10.1c.4,6.7,3,14.9,7.8,26.1l6.7,16.4.7,133.3.7,133.3h86.8l.7-133.3.7-133.3,6.7-16.4c4.8-11.2,7.4-19.4,7.8-26.1l1.1-10.1,16.4-5.6c82.3-28.3,141.2-98,154.6-183.6,3.4-21.2,1.9-67.4-2.2-86.4-11.2-46.6-29.8-80.8-62.9-114-27.9-27.9-54.4-44.3-90.9-56.6-10.1-3.4-24.2-7.1-32-8.6-19-3.7-58.1-4.5-76.7-1.9h-.4Z"/>
  <path d="M224.2,400.6c0,6.7,9.3,37.2,16.8,54.4,8.6,20.1,22.3,44,36.5,61.8,13.4,17.5,40.6,43.2,58.9,55.9,16.8,11.9,45.8,27.6,47.7,25.7,1.5-1.5-4.5-19.7-7.8-25.3-1.1-1.9-6.7-5.6-12.3-8.9-25.3-14.9-53.3-39.9-72.6-64.4-21.6-27.9-36.1-55.9-46.6-91.3l-3.4-11.2h-8.6c-7.8,0-8.6,0-8.6,3.7v-.4Z"/>
  <path d="M755,408c-19,65.6-62.9,122.9-119.2,155.7-5.6,3.4-11.2,7.4-12.3,8.9-3.4,5.6-9.3,23.8-7.8,25.3s30.9-13.8,47.7-25.7c17.9-13,45.1-38.7,58.9-55.9,14.2-17.9,27.9-41.7,36.5-61.8,7.4-17.1,16.8-47.7,16.8-54.4s-.7-3.7-8.6-3.7h-8.6l-3.4,11.2v.4Z"/>
  <path d="M135.9,562.2c-32.8,20.9-60.3,38.4-61.1,38.4-2.6,1.1,8.6,28.3,21.6,55.5,23.1,46.2,47.3,79.7,84.9,117.3,50.3,50.3,103.9,83.8,169.9,106.5,17.5,6,45.4,13.8,49.5,13.8s1.9-11.2,1.9-57v-57l-8.2-26.4-8.2-26.4-42.1-33.5-42.1-33.5-9.3-20.1-9.3-19.7-21.6-20.9c-23.5-23.1-36.5-38.4-51-60.3-7.1-10.4-10.4-14.2-12.7-14.2s-30.2,17.1-62.9,38l.7-.4Z"/>
  <path d="M788.1,538.4c-14.9,22.3-27.9,37.6-50.7,59.6l-21.2,20.5-10.1,20.5-9.7,20.5-42.1,33.5-42.1,33.5-7.8,26.4-8.2,26.4v57c0,45.8.4,57,1.9,57,3.4,0,25.7-6,41.3-11.2,50.3-16.4,96.8-41,139.7-74.1,19-14.5,60-55.5,74.5-74.5,19-24.6,35.4-50.7,48.4-77.5,11.9-23.8,24.2-53.6,22.7-55.1-5.6-4.5-123.3-77.1-125.2-77.1s-6.7,6-12.3,14.5h.7Z"/>
</svg>